G04 #@! TF.FileFunction,Soldermask,Top*
%FSLAX46Y46*%
G04 Gerber Fmt 4.6, Leading zero omitted, Abs format (unit mm)*
G04 Created by KiCad (PCBNEW 4.0.1-stable) date Monday, January 11, 2016 'PMt' 05:07:45 PM*
%MOMM*%
G01*
G04 APERTURE LIST*
%ADD10C,0.100000*%
%ADD11C,0.010000*%
%ADD12R,1.100000X0.600000*%
%ADD13R,1.901140X0.798780*%
%ADD14R,2.400000X2.000000*%
%ADD15R,2.127200X2.432000*%
%ADD16O,2.127200X2.432000*%
%ADD17R,2.200860X1.200100*%
G04 APERTURE END LIST*
D10*
D11*
G36*
X155171031Y-121693103D02*
X155208866Y-121694878D01*
X155244763Y-121697950D01*
X155280412Y-121702451D01*
X155317499Y-121708512D01*
X155342537Y-121713226D01*
X155379505Y-121720873D01*
X155414770Y-121729056D01*
X155449378Y-121738108D01*
X155484376Y-121748364D01*
X155520809Y-121760156D01*
X155559722Y-121773818D01*
X155602161Y-121789684D01*
X155649173Y-121808088D01*
X155684737Y-121822406D01*
X155731958Y-121841805D01*
X155779898Y-121861943D01*
X155828959Y-121883011D01*
X155879547Y-121905199D01*
X155932066Y-121928695D01*
X155986921Y-121953689D01*
X156044514Y-121980372D01*
X156105251Y-122008932D01*
X156169536Y-122039559D01*
X156237773Y-122072442D01*
X156310365Y-122107772D01*
X156387719Y-122145737D01*
X156470236Y-122186528D01*
X156558323Y-122230333D01*
X156616085Y-122259177D01*
X156697799Y-122299964D01*
X156773732Y-122337698D01*
X156844358Y-122372596D01*
X156910149Y-122404875D01*
X156971577Y-122434752D01*
X157029115Y-122462444D01*
X157083235Y-122488167D01*
X157134409Y-122512138D01*
X157183111Y-122534575D01*
X157229811Y-122555695D01*
X157274982Y-122575714D01*
X157319097Y-122594848D01*
X157362629Y-122613316D01*
X157406049Y-122631334D01*
X157449829Y-122649119D01*
X157494443Y-122666888D01*
X157540363Y-122684857D01*
X157557542Y-122691509D01*
X157581524Y-122700793D01*
X157603788Y-122709455D01*
X157623348Y-122717109D01*
X157639219Y-122723366D01*
X157650414Y-122727840D01*
X157655784Y-122730070D01*
X157665832Y-122734573D01*
X157650698Y-122753849D01*
X157638889Y-122767902D01*
X157622920Y-122785482D01*
X157603921Y-122805449D01*
X157583023Y-122826663D01*
X157561357Y-122847986D01*
X157540055Y-122868277D01*
X157520246Y-122886397D01*
X157511681Y-122893920D01*
X157436102Y-122955039D01*
X157354352Y-123013238D01*
X157266747Y-123068375D01*
X157173601Y-123120306D01*
X157075231Y-123168886D01*
X156971952Y-123213973D01*
X156864079Y-123255422D01*
X156751928Y-123293091D01*
X156635814Y-123326835D01*
X156516054Y-123356510D01*
X156476278Y-123365281D01*
X156417253Y-123377567D01*
X156363414Y-123388013D01*
X156313205Y-123396877D01*
X156265074Y-123404413D01*
X156217469Y-123410877D01*
X156168835Y-123416526D01*
X156158778Y-123417588D01*
X156138732Y-123419185D01*
X156113512Y-123420438D01*
X156084439Y-123421348D01*
X156052833Y-123421913D01*
X156020014Y-123422134D01*
X155987303Y-123422011D01*
X155956020Y-123421543D01*
X155927485Y-123420730D01*
X155903019Y-123419572D01*
X155883941Y-123418069D01*
X155880083Y-123417629D01*
X155809587Y-123406359D01*
X155744668Y-123390777D01*
X155685314Y-123370875D01*
X155631511Y-123346642D01*
X155583246Y-123318071D01*
X155540506Y-123285152D01*
X155503275Y-123247875D01*
X155471542Y-123206233D01*
X155445292Y-123160216D01*
X155425814Y-123113556D01*
X155416564Y-123085336D01*
X155409950Y-123059790D01*
X155405611Y-123034670D01*
X155403189Y-123007726D01*
X155402323Y-122976710D01*
X155402311Y-122966690D01*
X155402506Y-122909783D01*
X155379541Y-122907430D01*
X155356577Y-122905078D01*
X155306819Y-122939010D01*
X155307261Y-122988359D01*
X155311246Y-123046590D01*
X155322027Y-123103341D01*
X155339427Y-123158195D01*
X155363267Y-123210732D01*
X155393369Y-123260536D01*
X155429554Y-123307188D01*
X155454774Y-123334155D01*
X155495410Y-123371000D01*
X155539140Y-123403371D01*
X155586472Y-123431491D01*
X155637911Y-123455584D01*
X155693966Y-123475873D01*
X155755143Y-123492584D01*
X155821948Y-123505938D01*
X155855389Y-123511113D01*
X155876455Y-123513389D01*
X155903303Y-123515185D01*
X155934675Y-123516500D01*
X155969315Y-123517334D01*
X156005966Y-123517688D01*
X156043369Y-123517562D01*
X156080269Y-123516956D01*
X156115407Y-123515870D01*
X156147526Y-123514303D01*
X156175370Y-123512257D01*
X156187000Y-123511088D01*
X156301247Y-123495915D01*
X156416379Y-123476055D01*
X156531524Y-123451770D01*
X156645809Y-123423321D01*
X156758359Y-123390969D01*
X156868303Y-123354975D01*
X156974766Y-123315600D01*
X157076876Y-123273106D01*
X157173760Y-123227754D01*
X157228608Y-123199498D01*
X157311718Y-123152751D01*
X157390658Y-123103631D01*
X157464981Y-123052487D01*
X157534241Y-122999668D01*
X157597993Y-122945522D01*
X157655791Y-122890397D01*
X157707188Y-122834643D01*
X157728880Y-122808480D01*
X157743589Y-122790572D01*
X157754647Y-122778259D01*
X157762321Y-122771267D01*
X157766878Y-122769322D01*
X157767106Y-122769373D01*
X157781682Y-122773012D01*
X157802129Y-122777139D01*
X157827296Y-122781588D01*
X157856029Y-122786193D01*
X157887174Y-122790787D01*
X157919579Y-122795204D01*
X157952091Y-122799276D01*
X157983556Y-122802837D01*
X158012821Y-122805720D01*
X158026736Y-122806893D01*
X158056996Y-122808630D01*
X158090509Y-122809311D01*
X158127721Y-122808909D01*
X158169075Y-122807398D01*
X158215017Y-122804750D01*
X158265991Y-122800938D01*
X158322441Y-122795937D01*
X158384812Y-122789719D01*
X158453548Y-122782256D01*
X158474764Y-122779853D01*
X158572696Y-122768039D01*
X158677110Y-122754253D01*
X158787726Y-122738544D01*
X158904267Y-122720962D01*
X159026454Y-122701559D01*
X159154011Y-122680386D01*
X159286657Y-122657492D01*
X159424117Y-122632928D01*
X159566110Y-122606746D01*
X159712360Y-122578995D01*
X159862588Y-122549727D01*
X160016517Y-122518991D01*
X160173867Y-122486840D01*
X160334361Y-122453322D01*
X160497721Y-122418489D01*
X160663669Y-122382392D01*
X160691972Y-122376166D01*
X160723505Y-122369268D01*
X160753573Y-122362787D01*
X160781326Y-122356899D01*
X160805913Y-122351780D01*
X160826484Y-122347607D01*
X160842186Y-122344556D01*
X160852170Y-122342804D01*
X160854250Y-122342520D01*
X160881629Y-122342603D01*
X160910597Y-122348198D01*
X160939337Y-122358640D01*
X160966032Y-122373263D01*
X160988863Y-122391400D01*
X160989577Y-122392097D01*
X161000334Y-122404458D01*
X161013559Y-122422584D01*
X161028873Y-122445782D01*
X161045898Y-122473362D01*
X161064253Y-122504633D01*
X161083562Y-122538902D01*
X161103444Y-122575479D01*
X161123521Y-122613671D01*
X161143415Y-122652789D01*
X161162747Y-122692139D01*
X161181137Y-122731031D01*
X161198208Y-122768774D01*
X161206938Y-122788888D01*
X161234418Y-122857828D01*
X161256295Y-122922753D01*
X161272564Y-122983631D01*
X161283220Y-123040428D01*
X161288258Y-123093112D01*
X161287674Y-123141650D01*
X161281462Y-123186008D01*
X161270303Y-123224355D01*
X161260721Y-123244617D01*
X161247158Y-123266530D01*
X161231359Y-123287628D01*
X161215072Y-123305441D01*
X161209089Y-123310860D01*
X161193700Y-123322771D01*
X161177081Y-123333287D01*
X161158689Y-123342518D01*
X161137978Y-123350574D01*
X161114406Y-123357565D01*
X161087427Y-123363602D01*
X161056498Y-123368794D01*
X161021074Y-123373252D01*
X160980612Y-123377086D01*
X160934567Y-123380405D01*
X160882396Y-123383321D01*
X160841903Y-123385182D01*
X160822132Y-123385961D01*
X160796304Y-123386876D01*
X160765416Y-123387897D01*
X160730464Y-123388994D01*
X160692446Y-123390137D01*
X160652357Y-123391294D01*
X160611195Y-123392437D01*
X160569956Y-123393534D01*
X160549097Y-123394070D01*
X160443132Y-123396865D01*
X160343623Y-123399728D01*
X160249971Y-123402688D01*
X160161576Y-123405774D01*
X160077840Y-123409016D01*
X159998162Y-123412444D01*
X159921944Y-123416086D01*
X159848587Y-123419972D01*
X159777491Y-123424132D01*
X159708056Y-123428595D01*
X159639683Y-123433390D01*
X159571774Y-123438548D01*
X159503729Y-123444096D01*
X159467833Y-123447168D01*
X159315425Y-123461484D01*
X159168916Y-123477501D01*
X159027314Y-123495426D01*
X158889629Y-123515462D01*
X158754869Y-123537813D01*
X158622042Y-123562686D01*
X158490156Y-123590283D01*
X158358221Y-123620811D01*
X158225244Y-123654473D01*
X158090234Y-123691474D01*
X157952199Y-123732018D01*
X157810149Y-123776311D01*
X157702181Y-123811516D01*
X157645529Y-123830415D01*
X157593101Y-123848181D01*
X157544324Y-123865079D01*
X157498627Y-123881377D01*
X157455437Y-123897340D01*
X157414184Y-123913235D01*
X157374295Y-123929327D01*
X157335199Y-123945884D01*
X157296325Y-123963170D01*
X157257099Y-123981452D01*
X157216952Y-124000997D01*
X157175310Y-124022071D01*
X157131602Y-124044939D01*
X157085257Y-124069869D01*
X157035703Y-124097125D01*
X156982368Y-124126975D01*
X156924680Y-124159684D01*
X156862068Y-124195519D01*
X156797306Y-124232815D01*
X156747113Y-124261743D01*
X156702343Y-124287450D01*
X156662339Y-124310298D01*
X156626445Y-124330648D01*
X156594006Y-124348863D01*
X156564365Y-124365303D01*
X156536866Y-124380330D01*
X156510853Y-124394307D01*
X156485670Y-124407594D01*
X156460662Y-124420554D01*
X156435172Y-124433549D01*
X156412778Y-124444820D01*
X156347461Y-124476741D01*
X156286674Y-124504702D01*
X156229369Y-124529064D01*
X156174501Y-124550188D01*
X156121022Y-124568436D01*
X156067885Y-124584169D01*
X156014043Y-124597748D01*
X155958449Y-124609537D01*
X155910975Y-124618094D01*
X155851699Y-124627475D01*
X155797114Y-124634849D01*
X155745196Y-124640377D01*
X155693926Y-124644223D01*
X155641279Y-124646550D01*
X155585234Y-124647522D01*
X155546708Y-124647509D01*
X155520120Y-124647309D01*
X155495076Y-124647051D01*
X155472670Y-124646751D01*
X155453997Y-124646426D01*
X155440149Y-124646092D01*
X155432223Y-124645767D01*
X155432056Y-124645755D01*
X155341009Y-124636740D01*
X155251200Y-124623096D01*
X155163485Y-124605042D01*
X155078718Y-124582798D01*
X154997756Y-124556583D01*
X154921455Y-124526619D01*
X154863791Y-124499817D01*
X154777957Y-124452919D01*
X154694330Y-124399377D01*
X154612988Y-124339273D01*
X154534006Y-124272690D01*
X154457461Y-124199708D01*
X154383429Y-124120411D01*
X154311985Y-124034879D01*
X154243207Y-123943196D01*
X154177171Y-123845442D01*
X154113952Y-123741701D01*
X154053627Y-123632053D01*
X154049300Y-123623746D01*
X154012293Y-123548734D01*
X153977779Y-123470989D01*
X153945400Y-123389580D01*
X153914798Y-123303574D01*
X153885612Y-123212039D01*
X153869110Y-123155758D01*
X153861543Y-123129169D01*
X153615806Y-123030044D01*
X153576329Y-123014069D01*
X153538813Y-122998791D01*
X153503766Y-122984422D01*
X153471694Y-122971173D01*
X153443102Y-122959257D01*
X153418498Y-122948887D01*
X153398388Y-122940274D01*
X153383278Y-122933630D01*
X153373674Y-122929168D01*
X153370083Y-122927101D01*
X153370069Y-122927055D01*
X153372644Y-122924178D01*
X153380115Y-122916965D01*
X153392098Y-122905762D01*
X153408213Y-122890917D01*
X153428078Y-122872776D01*
X153451310Y-122851686D01*
X153477529Y-122827994D01*
X153506351Y-122802048D01*
X153537395Y-122774193D01*
X153570280Y-122744778D01*
X153595847Y-122721966D01*
X153821625Y-122520741D01*
X153836003Y-122481022D01*
X153864338Y-122410948D01*
X153897586Y-122344045D01*
X153936152Y-122279707D01*
X153980445Y-122217324D01*
X154030870Y-122156287D01*
X154087835Y-122095990D01*
X154104224Y-122079917D01*
X154171538Y-122019739D01*
X154244130Y-121964059D01*
X154321734Y-121913010D01*
X154404086Y-121866722D01*
X154490921Y-121825330D01*
X154581974Y-121788964D01*
X154676979Y-121757758D01*
X154775671Y-121731842D01*
X154821750Y-121721834D01*
X154866147Y-121713197D01*
X154905869Y-121706427D01*
X154942979Y-121701295D01*
X154979540Y-121697572D01*
X155017614Y-121695029D01*
X155059265Y-121693439D01*
X155082806Y-121692916D01*
X155129574Y-121692493D01*
X155171031Y-121693103D01*
X155171031Y-121693103D01*
G37*
X155171031Y-121693103D02*
X155208866Y-121694878D01*
X155244763Y-121697950D01*
X155280412Y-121702451D01*
X155317499Y-121708512D01*
X155342537Y-121713226D01*
X155379505Y-121720873D01*
X155414770Y-121729056D01*
X155449378Y-121738108D01*
X155484376Y-121748364D01*
X155520809Y-121760156D01*
X155559722Y-121773818D01*
X155602161Y-121789684D01*
X155649173Y-121808088D01*
X155684737Y-121822406D01*
X155731958Y-121841805D01*
X155779898Y-121861943D01*
X155828959Y-121883011D01*
X155879547Y-121905199D01*
X155932066Y-121928695D01*
X155986921Y-121953689D01*
X156044514Y-121980372D01*
X156105251Y-122008932D01*
X156169536Y-122039559D01*
X156237773Y-122072442D01*
X156310365Y-122107772D01*
X156387719Y-122145737D01*
X156470236Y-122186528D01*
X156558323Y-122230333D01*
X156616085Y-122259177D01*
X156697799Y-122299964D01*
X156773732Y-122337698D01*
X156844358Y-122372596D01*
X156910149Y-122404875D01*
X156971577Y-122434752D01*
X157029115Y-122462444D01*
X157083235Y-122488167D01*
X157134409Y-122512138D01*
X157183111Y-122534575D01*
X157229811Y-122555695D01*
X157274982Y-122575714D01*
X157319097Y-122594848D01*
X157362629Y-122613316D01*
X157406049Y-122631334D01*
X157449829Y-122649119D01*
X157494443Y-122666888D01*
X157540363Y-122684857D01*
X157557542Y-122691509D01*
X157581524Y-122700793D01*
X157603788Y-122709455D01*
X157623348Y-122717109D01*
X157639219Y-122723366D01*
X157650414Y-122727840D01*
X157655784Y-122730070D01*
X157665832Y-122734573D01*
X157650698Y-122753849D01*
X157638889Y-122767902D01*
X157622920Y-122785482D01*
X157603921Y-122805449D01*
X157583023Y-122826663D01*
X157561357Y-122847986D01*
X157540055Y-122868277D01*
X157520246Y-122886397D01*
X157511681Y-122893920D01*
X157436102Y-122955039D01*
X157354352Y-123013238D01*
X157266747Y-123068375D01*
X157173601Y-123120306D01*
X157075231Y-123168886D01*
X156971952Y-123213973D01*
X156864079Y-123255422D01*
X156751928Y-123293091D01*
X156635814Y-123326835D01*
X156516054Y-123356510D01*
X156476278Y-123365281D01*
X156417253Y-123377567D01*
X156363414Y-123388013D01*
X156313205Y-123396877D01*
X156265074Y-123404413D01*
X156217469Y-123410877D01*
X156168835Y-123416526D01*
X156158778Y-123417588D01*
X156138732Y-123419185D01*
X156113512Y-123420438D01*
X156084439Y-123421348D01*
X156052833Y-123421913D01*
X156020014Y-123422134D01*
X155987303Y-123422011D01*
X155956020Y-123421543D01*
X155927485Y-123420730D01*
X155903019Y-123419572D01*
X155883941Y-123418069D01*
X155880083Y-123417629D01*
X155809587Y-123406359D01*
X155744668Y-123390777D01*
X155685314Y-123370875D01*
X155631511Y-123346642D01*
X155583246Y-123318071D01*
X155540506Y-123285152D01*
X155503275Y-123247875D01*
X155471542Y-123206233D01*
X155445292Y-123160216D01*
X155425814Y-123113556D01*
X155416564Y-123085336D01*
X155409950Y-123059790D01*
X155405611Y-123034670D01*
X155403189Y-123007726D01*
X155402323Y-122976710D01*
X155402311Y-122966690D01*
X155402506Y-122909783D01*
X155379541Y-122907430D01*
X155356577Y-122905078D01*
X155306819Y-122939010D01*
X155307261Y-122988359D01*
X155311246Y-123046590D01*
X155322027Y-123103341D01*
X155339427Y-123158195D01*
X155363267Y-123210732D01*
X155393369Y-123260536D01*
X155429554Y-123307188D01*
X155454774Y-123334155D01*
X155495410Y-123371000D01*
X155539140Y-123403371D01*
X155586472Y-123431491D01*
X155637911Y-123455584D01*
X155693966Y-123475873D01*
X155755143Y-123492584D01*
X155821948Y-123505938D01*
X155855389Y-123511113D01*
X155876455Y-123513389D01*
X155903303Y-123515185D01*
X155934675Y-123516500D01*
X155969315Y-123517334D01*
X156005966Y-123517688D01*
X156043369Y-123517562D01*
X156080269Y-123516956D01*
X156115407Y-123515870D01*
X156147526Y-123514303D01*
X156175370Y-123512257D01*
X156187000Y-123511088D01*
X156301247Y-123495915D01*
X156416379Y-123476055D01*
X156531524Y-123451770D01*
X156645809Y-123423321D01*
X156758359Y-123390969D01*
X156868303Y-123354975D01*
X156974766Y-123315600D01*
X157076876Y-123273106D01*
X157173760Y-123227754D01*
X157228608Y-123199498D01*
X157311718Y-123152751D01*
X157390658Y-123103631D01*
X157464981Y-123052487D01*
X157534241Y-122999668D01*
X157597993Y-122945522D01*
X157655791Y-122890397D01*
X157707188Y-122834643D01*
X157728880Y-122808480D01*
X157743589Y-122790572D01*
X157754647Y-122778259D01*
X157762321Y-122771267D01*
X157766878Y-122769322D01*
X157767106Y-122769373D01*
X157781682Y-122773012D01*
X157802129Y-122777139D01*
X157827296Y-122781588D01*
X157856029Y-122786193D01*
X157887174Y-122790787D01*
X157919579Y-122795204D01*
X157952091Y-122799276D01*
X157983556Y-122802837D01*
X158012821Y-122805720D01*
X158026736Y-122806893D01*
X158056996Y-122808630D01*
X158090509Y-122809311D01*
X158127721Y-122808909D01*
X158169075Y-122807398D01*
X158215017Y-122804750D01*
X158265991Y-122800938D01*
X158322441Y-122795937D01*
X158384812Y-122789719D01*
X158453548Y-122782256D01*
X158474764Y-122779853D01*
X158572696Y-122768039D01*
X158677110Y-122754253D01*
X158787726Y-122738544D01*
X158904267Y-122720962D01*
X159026454Y-122701559D01*
X159154011Y-122680386D01*
X159286657Y-122657492D01*
X159424117Y-122632928D01*
X159566110Y-122606746D01*
X159712360Y-122578995D01*
X159862588Y-122549727D01*
X160016517Y-122518991D01*
X160173867Y-122486840D01*
X160334361Y-122453322D01*
X160497721Y-122418489D01*
X160663669Y-122382392D01*
X160691972Y-122376166D01*
X160723505Y-122369268D01*
X160753573Y-122362787D01*
X160781326Y-122356899D01*
X160805913Y-122351780D01*
X160826484Y-122347607D01*
X160842186Y-122344556D01*
X160852170Y-122342804D01*
X160854250Y-122342520D01*
X160881629Y-122342603D01*
X160910597Y-122348198D01*
X160939337Y-122358640D01*
X160966032Y-122373263D01*
X160988863Y-122391400D01*
X160989577Y-122392097D01*
X161000334Y-122404458D01*
X161013559Y-122422584D01*
X161028873Y-122445782D01*
X161045898Y-122473362D01*
X161064253Y-122504633D01*
X161083562Y-122538902D01*
X161103444Y-122575479D01*
X161123521Y-122613671D01*
X161143415Y-122652789D01*
X161162747Y-122692139D01*
X161181137Y-122731031D01*
X161198208Y-122768774D01*
X161206938Y-122788888D01*
X161234418Y-122857828D01*
X161256295Y-122922753D01*
X161272564Y-122983631D01*
X161283220Y-123040428D01*
X161288258Y-123093112D01*
X161287674Y-123141650D01*
X161281462Y-123186008D01*
X161270303Y-123224355D01*
X161260721Y-123244617D01*
X161247158Y-123266530D01*
X161231359Y-123287628D01*
X161215072Y-123305441D01*
X161209089Y-123310860D01*
X161193700Y-123322771D01*
X161177081Y-123333287D01*
X161158689Y-123342518D01*
X161137978Y-123350574D01*
X161114406Y-123357565D01*
X161087427Y-123363602D01*
X161056498Y-123368794D01*
X161021074Y-123373252D01*
X160980612Y-123377086D01*
X160934567Y-123380405D01*
X160882396Y-123383321D01*
X160841903Y-123385182D01*
X160822132Y-123385961D01*
X160796304Y-123386876D01*
X160765416Y-123387897D01*
X160730464Y-123388994D01*
X160692446Y-123390137D01*
X160652357Y-123391294D01*
X160611195Y-123392437D01*
X160569956Y-123393534D01*
X160549097Y-123394070D01*
X160443132Y-123396865D01*
X160343623Y-123399728D01*
X160249971Y-123402688D01*
X160161576Y-123405774D01*
X160077840Y-123409016D01*
X159998162Y-123412444D01*
X159921944Y-123416086D01*
X159848587Y-123419972D01*
X159777491Y-123424132D01*
X159708056Y-123428595D01*
X159639683Y-123433390D01*
X159571774Y-123438548D01*
X159503729Y-123444096D01*
X159467833Y-123447168D01*
X159315425Y-123461484D01*
X159168916Y-123477501D01*
X159027314Y-123495426D01*
X158889629Y-123515462D01*
X158754869Y-123537813D01*
X158622042Y-123562686D01*
X158490156Y-123590283D01*
X158358221Y-123620811D01*
X158225244Y-123654473D01*
X158090234Y-123691474D01*
X157952199Y-123732018D01*
X157810149Y-123776311D01*
X157702181Y-123811516D01*
X157645529Y-123830415D01*
X157593101Y-123848181D01*
X157544324Y-123865079D01*
X157498627Y-123881377D01*
X157455437Y-123897340D01*
X157414184Y-123913235D01*
X157374295Y-123929327D01*
X157335199Y-123945884D01*
X157296325Y-123963170D01*
X157257099Y-123981452D01*
X157216952Y-124000997D01*
X157175310Y-124022071D01*
X157131602Y-124044939D01*
X157085257Y-124069869D01*
X157035703Y-124097125D01*
X156982368Y-124126975D01*
X156924680Y-124159684D01*
X156862068Y-124195519D01*
X156797306Y-124232815D01*
X156747113Y-124261743D01*
X156702343Y-124287450D01*
X156662339Y-124310298D01*
X156626445Y-124330648D01*
X156594006Y-124348863D01*
X156564365Y-124365303D01*
X156536866Y-124380330D01*
X156510853Y-124394307D01*
X156485670Y-124407594D01*
X156460662Y-124420554D01*
X156435172Y-124433549D01*
X156412778Y-124444820D01*
X156347461Y-124476741D01*
X156286674Y-124504702D01*
X156229369Y-124529064D01*
X156174501Y-124550188D01*
X156121022Y-124568436D01*
X156067885Y-124584169D01*
X156014043Y-124597748D01*
X155958449Y-124609537D01*
X155910975Y-124618094D01*
X155851699Y-124627475D01*
X155797114Y-124634849D01*
X155745196Y-124640377D01*
X155693926Y-124644223D01*
X155641279Y-124646550D01*
X155585234Y-124647522D01*
X155546708Y-124647509D01*
X155520120Y-124647309D01*
X155495076Y-124647051D01*
X155472670Y-124646751D01*
X155453997Y-124646426D01*
X155440149Y-124646092D01*
X155432223Y-124645767D01*
X155432056Y-124645755D01*
X155341009Y-124636740D01*
X155251200Y-124623096D01*
X155163485Y-124605042D01*
X155078718Y-124582798D01*
X154997756Y-124556583D01*
X154921455Y-124526619D01*
X154863791Y-124499817D01*
X154777957Y-124452919D01*
X154694330Y-124399377D01*
X154612988Y-124339273D01*
X154534006Y-124272690D01*
X154457461Y-124199708D01*
X154383429Y-124120411D01*
X154311985Y-124034879D01*
X154243207Y-123943196D01*
X154177171Y-123845442D01*
X154113952Y-123741701D01*
X154053627Y-123632053D01*
X154049300Y-123623746D01*
X154012293Y-123548734D01*
X153977779Y-123470989D01*
X153945400Y-123389580D01*
X153914798Y-123303574D01*
X153885612Y-123212039D01*
X153869110Y-123155758D01*
X153861543Y-123129169D01*
X153615806Y-123030044D01*
X153576329Y-123014069D01*
X153538813Y-122998791D01*
X153503766Y-122984422D01*
X153471694Y-122971173D01*
X153443102Y-122959257D01*
X153418498Y-122948887D01*
X153398388Y-122940274D01*
X153383278Y-122933630D01*
X153373674Y-122929168D01*
X153370083Y-122927101D01*
X153370069Y-122927055D01*
X153372644Y-122924178D01*
X153380115Y-122916965D01*
X153392098Y-122905762D01*
X153408213Y-122890917D01*
X153428078Y-122872776D01*
X153451310Y-122851686D01*
X153477529Y-122827994D01*
X153506351Y-122802048D01*
X153537395Y-122774193D01*
X153570280Y-122744778D01*
X153595847Y-122721966D01*
X153821625Y-122520741D01*
X153836003Y-122481022D01*
X153864338Y-122410948D01*
X153897586Y-122344045D01*
X153936152Y-122279707D01*
X153980445Y-122217324D01*
X154030870Y-122156287D01*
X154087835Y-122095990D01*
X154104224Y-122079917D01*
X154171538Y-122019739D01*
X154244130Y-121964059D01*
X154321734Y-121913010D01*
X154404086Y-121866722D01*
X154490921Y-121825330D01*
X154581974Y-121788964D01*
X154676979Y-121757758D01*
X154775671Y-121731842D01*
X154821750Y-121721834D01*
X154866147Y-121713197D01*
X154905869Y-121706427D01*
X154942979Y-121701295D01*
X154979540Y-121697572D01*
X155017614Y-121695029D01*
X155059265Y-121693439D01*
X155082806Y-121692916D01*
X155129574Y-121692493D01*
X155171031Y-121693103D01*
D12*
X161190000Y-100200000D03*
X161190000Y-100600000D03*
X161190000Y-101000000D03*
X161190000Y-101400000D03*
X161190000Y-101800000D03*
X161190000Y-102200000D03*
X161190000Y-102600000D03*
X161190000Y-103000000D03*
X161190000Y-103400000D03*
X161190000Y-103800000D03*
X161190000Y-107800000D03*
X161190000Y-107400000D03*
X161190000Y-107000000D03*
X161190000Y-106600000D03*
X161190000Y-106200000D03*
X161190000Y-105800000D03*
X161190000Y-105400000D03*
X161190000Y-105000000D03*
X161190000Y-104600000D03*
X161190000Y-104200000D03*
X161190000Y-108200000D03*
X161190000Y-108600000D03*
X161190000Y-109000000D03*
X161190000Y-109400000D03*
X161190000Y-109800000D03*
X161190000Y-110200000D03*
X161190000Y-110600000D03*
X161190000Y-111000000D03*
X161190000Y-111400000D03*
X161190000Y-111800000D03*
X161190000Y-115800000D03*
X161190000Y-115400000D03*
X161190000Y-115000000D03*
X161190000Y-114600000D03*
X161190000Y-114200000D03*
X161190000Y-113800000D03*
X161190000Y-113400000D03*
X161190000Y-113000000D03*
X161190000Y-112600000D03*
X161190000Y-112200000D03*
X158110000Y-112200000D03*
X158110000Y-112600000D03*
X158110000Y-113000000D03*
X158110000Y-113400000D03*
X158110000Y-113800000D03*
X158110000Y-114200000D03*
X158110000Y-114600000D03*
X158110000Y-115000000D03*
X158110000Y-115400000D03*
X158110000Y-115800000D03*
X158110000Y-111800000D03*
X158110000Y-111400000D03*
X158110000Y-111000000D03*
X158110000Y-110600000D03*
X158110000Y-110200000D03*
X158110000Y-109800000D03*
X158110000Y-109400000D03*
X158110000Y-109000000D03*
X158110000Y-108600000D03*
X158110000Y-108200000D03*
X158110000Y-104200000D03*
X158110000Y-104600000D03*
X158110000Y-105000000D03*
X158110000Y-105400000D03*
X158110000Y-105800000D03*
X158110000Y-106200000D03*
X158110000Y-106600000D03*
X158110000Y-107000000D03*
X158110000Y-107400000D03*
X158110000Y-107800000D03*
X158110000Y-103800000D03*
X158110000Y-103400000D03*
X158110000Y-103000000D03*
X158110000Y-102600000D03*
X158110000Y-102200000D03*
X158110000Y-101800000D03*
X158110000Y-101400000D03*
X158110000Y-101000000D03*
X158110000Y-100600000D03*
X158110000Y-100200000D03*
D13*
X158461920Y-94250000D03*
X158461920Y-93599760D03*
X158461920Y-92949520D03*
X155800000Y-92949520D03*
X155800000Y-93599760D03*
X155800000Y-94250000D03*
X164300000Y-98250000D03*
X164300000Y-97599760D03*
X164300000Y-96949520D03*
X161638080Y-96949520D03*
X161638080Y-97599760D03*
X161638080Y-98250000D03*
X158611920Y-96700000D03*
X158611920Y-96049760D03*
X158611920Y-95399520D03*
X155950000Y-95399520D03*
X155950000Y-96049760D03*
X155950000Y-96700000D03*
D14*
X142820000Y-102070000D03*
X138820000Y-102070000D03*
D15*
X138570000Y-108310000D03*
D16*
X141110000Y-108310000D03*
X143650000Y-108310000D03*
X146190000Y-108310000D03*
X148730000Y-108310000D03*
X151270000Y-108310000D03*
D17*
X139298860Y-97530000D03*
X139298860Y-99430000D03*
X142301140Y-98480000D03*
D15*
X138570000Y-91350000D03*
D16*
X141110000Y-91350000D03*
X143650000Y-91350000D03*
X146190000Y-91350000D03*
X148730000Y-91350000D03*
X151270000Y-91350000D03*
M02*
