M48
INCH,TZ
T1C0.013
T2C0.013
T3C0.040
T4C0.118
%
G90
G05
T1
X54268Y-39142
X56224Y-41020
X56224Y-41980
X58531Y-40193
X58543Y-40551
X59551Y-40551
X60472Y-36909
X60758Y-36272
X60827Y-36594
X60886Y-37362
X61713Y-36299
X61929Y-37402
X61929Y-38228
X62638Y-38642
X62972Y-36772
X63111Y-38155
X63189Y-37579
X63279Y-37134
X63976Y-37520
X64154Y-38524
X64671Y-37540
T2
X60732Y-39637
X60866Y-40066
X60895Y-39351
X60997Y-44538
X61001Y-40496
X61005Y-45479
X61028Y-45811
X61030Y-39780
X61048Y-45153
X61123Y-44096
X61164Y-40209
X61165Y-44822
X61177Y-46437
X61246Y-43649
X61271Y-46048
X61283Y-38978
X61298Y-40638
X61302Y-44374
X61369Y-43204
X61404Y-41783
X61428Y-43924
X61470Y-39249
X61538Y-42212
X61538Y-42827
X61555Y-46441
X61557Y-43475
X61567Y-41497
X61701Y-41926
X61701Y-43114
X61728Y-39042
X61836Y-42355
X61836Y-42685
X61846Y-46217
X61915Y-39312
X62305Y-38998
X62305Y-38998
X63404Y-38998
X63404Y-46042
X63794Y-39312
X63794Y-45727
X63873Y-42355
X63873Y-42685
X63981Y-39042
X63981Y-45998
X64008Y-41926
X64008Y-43114
X64142Y-41497
X64142Y-43543
X64171Y-42212
X64171Y-42827
X64239Y-39249
X64239Y-45791
X64276Y-41067
X64276Y-43972
X64305Y-41783
X64305Y-43257
X64411Y-40638
X64411Y-44401
X64426Y-38978
X64426Y-46061
X64440Y-41354
X64440Y-43686
X64545Y-40209
X64545Y-44830
X64574Y-40925
X64574Y-44115
X64679Y-39780
X64679Y-45260
X64708Y-40496
X64708Y-44544
X64814Y-39351
X64814Y-45689
X64843Y-40066
X64843Y-44973
X64977Y-39637
X64977Y-45402
T3
X54555Y-35965
X54555Y-42642
X55555Y-35965
X55555Y-42642
X56555Y-35965
X56555Y-42642
X57555Y-35965
X57555Y-42642
X58555Y-35965
X58555Y-42642
X59555Y-35965
X59555Y-42642
T4
X52264Y-36516
X52264Y-48524
X64272Y-36516
X64272Y-48524
T0
M30
