G04 #@! TF.FileFunction,Soldermask,Bot*
%FSLAX46Y46*%
G04 Gerber Fmt 4.6, Leading zero omitted, Abs format (unit mm)*
G04 Created by KiCad (PCBNEW 4.0.1-stable) date Monday, January 11, 2016 'PMt' 05:07:45 PM*
%MOMM*%
G01*
G04 APERTURE LIST*
%ADD10C,0.100000*%
%ADD11C,0.010000*%
%ADD12R,1.060000X0.630000*%
%ADD13R,1.060000X0.750000*%
%ADD14R,1.600000X1.150000*%
%ADD15R,1.150000X0.700000*%
%ADD16R,1.275000X1.125000*%
%ADD17R,1.600000X1.300000*%
%ADD18C,1.924000*%
%ADD19R,2.127200X2.432000*%
%ADD20O,2.127200X2.432000*%
G04 APERTURE END LIST*
D10*
D11*
G36*
X159488969Y-121693103D02*
X159451134Y-121694878D01*
X159415237Y-121697950D01*
X159379588Y-121702451D01*
X159342501Y-121708512D01*
X159317463Y-121713226D01*
X159280495Y-121720873D01*
X159245230Y-121729056D01*
X159210622Y-121738108D01*
X159175624Y-121748364D01*
X159139191Y-121760156D01*
X159100278Y-121773818D01*
X159057839Y-121789684D01*
X159010827Y-121808088D01*
X158975263Y-121822406D01*
X158928042Y-121841805D01*
X158880102Y-121861943D01*
X158831041Y-121883011D01*
X158780453Y-121905199D01*
X158727934Y-121928695D01*
X158673079Y-121953689D01*
X158615486Y-121980372D01*
X158554749Y-122008932D01*
X158490464Y-122039559D01*
X158422227Y-122072442D01*
X158349635Y-122107772D01*
X158272281Y-122145737D01*
X158189764Y-122186528D01*
X158101677Y-122230333D01*
X158043915Y-122259177D01*
X157962201Y-122299964D01*
X157886268Y-122337698D01*
X157815642Y-122372596D01*
X157749851Y-122404875D01*
X157688423Y-122434752D01*
X157630885Y-122462444D01*
X157576765Y-122488167D01*
X157525591Y-122512138D01*
X157476889Y-122534575D01*
X157430189Y-122555695D01*
X157385018Y-122575714D01*
X157340903Y-122594848D01*
X157297371Y-122613316D01*
X157253951Y-122631334D01*
X157210171Y-122649119D01*
X157165557Y-122666888D01*
X157119637Y-122684857D01*
X157102458Y-122691509D01*
X157078476Y-122700793D01*
X157056212Y-122709455D01*
X157036652Y-122717109D01*
X157020781Y-122723366D01*
X157009586Y-122727840D01*
X157004216Y-122730070D01*
X156994168Y-122734573D01*
X157009302Y-122753849D01*
X157021111Y-122767902D01*
X157037080Y-122785482D01*
X157056079Y-122805449D01*
X157076977Y-122826663D01*
X157098643Y-122847986D01*
X157119945Y-122868277D01*
X157139754Y-122886397D01*
X157148319Y-122893920D01*
X157223898Y-122955039D01*
X157305648Y-123013238D01*
X157393253Y-123068375D01*
X157486399Y-123120306D01*
X157584769Y-123168886D01*
X157688048Y-123213973D01*
X157795921Y-123255422D01*
X157908072Y-123293091D01*
X158024186Y-123326835D01*
X158143946Y-123356510D01*
X158183722Y-123365281D01*
X158242747Y-123377567D01*
X158296586Y-123388013D01*
X158346795Y-123396877D01*
X158394926Y-123404413D01*
X158442531Y-123410877D01*
X158491165Y-123416526D01*
X158501222Y-123417588D01*
X158521268Y-123419185D01*
X158546488Y-123420438D01*
X158575561Y-123421348D01*
X158607167Y-123421913D01*
X158639986Y-123422134D01*
X158672697Y-123422011D01*
X158703980Y-123421543D01*
X158732515Y-123420730D01*
X158756981Y-123419572D01*
X158776059Y-123418069D01*
X158779917Y-123417629D01*
X158850413Y-123406359D01*
X158915332Y-123390777D01*
X158974686Y-123370875D01*
X159028489Y-123346642D01*
X159076754Y-123318071D01*
X159119494Y-123285152D01*
X159156725Y-123247875D01*
X159188458Y-123206233D01*
X159214708Y-123160216D01*
X159234186Y-123113556D01*
X159243436Y-123085336D01*
X159250050Y-123059790D01*
X159254389Y-123034670D01*
X159256811Y-123007726D01*
X159257677Y-122976710D01*
X159257689Y-122966690D01*
X159257494Y-122909783D01*
X159280459Y-122907430D01*
X159303423Y-122905078D01*
X159353181Y-122939010D01*
X159352739Y-122988359D01*
X159348754Y-123046590D01*
X159337973Y-123103341D01*
X159320573Y-123158195D01*
X159296733Y-123210732D01*
X159266631Y-123260536D01*
X159230446Y-123307188D01*
X159205226Y-123334155D01*
X159164590Y-123371000D01*
X159120860Y-123403371D01*
X159073528Y-123431491D01*
X159022089Y-123455584D01*
X158966034Y-123475873D01*
X158904857Y-123492584D01*
X158838052Y-123505938D01*
X158804611Y-123511113D01*
X158783545Y-123513389D01*
X158756697Y-123515185D01*
X158725325Y-123516500D01*
X158690685Y-123517334D01*
X158654034Y-123517688D01*
X158616631Y-123517562D01*
X158579731Y-123516956D01*
X158544593Y-123515870D01*
X158512474Y-123514303D01*
X158484630Y-123512257D01*
X158473000Y-123511088D01*
X158358753Y-123495915D01*
X158243621Y-123476055D01*
X158128476Y-123451770D01*
X158014191Y-123423321D01*
X157901641Y-123390969D01*
X157791697Y-123354975D01*
X157685234Y-123315600D01*
X157583124Y-123273106D01*
X157486240Y-123227754D01*
X157431392Y-123199498D01*
X157348282Y-123152751D01*
X157269342Y-123103631D01*
X157195019Y-123052487D01*
X157125759Y-122999668D01*
X157062007Y-122945522D01*
X157004209Y-122890397D01*
X156952812Y-122834643D01*
X156931120Y-122808480D01*
X156916411Y-122790572D01*
X156905353Y-122778259D01*
X156897679Y-122771267D01*
X156893122Y-122769322D01*
X156892894Y-122769373D01*
X156878318Y-122773012D01*
X156857871Y-122777139D01*
X156832704Y-122781588D01*
X156803971Y-122786193D01*
X156772826Y-122790787D01*
X156740421Y-122795204D01*
X156707909Y-122799276D01*
X156676444Y-122802837D01*
X156647179Y-122805720D01*
X156633264Y-122806893D01*
X156603004Y-122808630D01*
X156569491Y-122809311D01*
X156532279Y-122808909D01*
X156490925Y-122807398D01*
X156444983Y-122804750D01*
X156394009Y-122800938D01*
X156337559Y-122795937D01*
X156275188Y-122789719D01*
X156206452Y-122782256D01*
X156185236Y-122779853D01*
X156087304Y-122768039D01*
X155982890Y-122754253D01*
X155872274Y-122738544D01*
X155755733Y-122720962D01*
X155633546Y-122701559D01*
X155505989Y-122680386D01*
X155373343Y-122657492D01*
X155235883Y-122632928D01*
X155093890Y-122606746D01*
X154947640Y-122578995D01*
X154797412Y-122549727D01*
X154643483Y-122518991D01*
X154486133Y-122486840D01*
X154325639Y-122453322D01*
X154162279Y-122418489D01*
X153996331Y-122382392D01*
X153968028Y-122376166D01*
X153936495Y-122369268D01*
X153906427Y-122362787D01*
X153878674Y-122356899D01*
X153854087Y-122351780D01*
X153833516Y-122347607D01*
X153817814Y-122344556D01*
X153807830Y-122342804D01*
X153805750Y-122342520D01*
X153778371Y-122342603D01*
X153749403Y-122348198D01*
X153720663Y-122358640D01*
X153693968Y-122373263D01*
X153671137Y-122391400D01*
X153670423Y-122392097D01*
X153659666Y-122404458D01*
X153646441Y-122422584D01*
X153631127Y-122445782D01*
X153614102Y-122473362D01*
X153595747Y-122504633D01*
X153576438Y-122538902D01*
X153556556Y-122575479D01*
X153536479Y-122613671D01*
X153516585Y-122652789D01*
X153497253Y-122692139D01*
X153478863Y-122731031D01*
X153461792Y-122768774D01*
X153453062Y-122788888D01*
X153425582Y-122857828D01*
X153403705Y-122922753D01*
X153387436Y-122983631D01*
X153376780Y-123040428D01*
X153371742Y-123093112D01*
X153372326Y-123141650D01*
X153378538Y-123186008D01*
X153389697Y-123224355D01*
X153399279Y-123244617D01*
X153412842Y-123266530D01*
X153428641Y-123287628D01*
X153444928Y-123305441D01*
X153450911Y-123310860D01*
X153466300Y-123322771D01*
X153482919Y-123333287D01*
X153501311Y-123342518D01*
X153522022Y-123350574D01*
X153545594Y-123357565D01*
X153572573Y-123363602D01*
X153603502Y-123368794D01*
X153638926Y-123373252D01*
X153679388Y-123377086D01*
X153725433Y-123380405D01*
X153777604Y-123383321D01*
X153818097Y-123385182D01*
X153837868Y-123385961D01*
X153863696Y-123386876D01*
X153894584Y-123387897D01*
X153929536Y-123388994D01*
X153967554Y-123390137D01*
X154007643Y-123391294D01*
X154048805Y-123392437D01*
X154090044Y-123393534D01*
X154110903Y-123394070D01*
X154216868Y-123396865D01*
X154316377Y-123399728D01*
X154410029Y-123402688D01*
X154498424Y-123405774D01*
X154582160Y-123409016D01*
X154661838Y-123412444D01*
X154738056Y-123416086D01*
X154811413Y-123419972D01*
X154882509Y-123424132D01*
X154951944Y-123428595D01*
X155020317Y-123433390D01*
X155088226Y-123438548D01*
X155156271Y-123444096D01*
X155192167Y-123447168D01*
X155344575Y-123461484D01*
X155491084Y-123477501D01*
X155632686Y-123495426D01*
X155770371Y-123515462D01*
X155905131Y-123537813D01*
X156037958Y-123562686D01*
X156169844Y-123590283D01*
X156301779Y-123620811D01*
X156434756Y-123654473D01*
X156569766Y-123691474D01*
X156707801Y-123732018D01*
X156849851Y-123776311D01*
X156957819Y-123811516D01*
X157014471Y-123830415D01*
X157066899Y-123848181D01*
X157115676Y-123865079D01*
X157161373Y-123881377D01*
X157204563Y-123897340D01*
X157245816Y-123913235D01*
X157285705Y-123929327D01*
X157324801Y-123945884D01*
X157363675Y-123963170D01*
X157402901Y-123981452D01*
X157443048Y-124000997D01*
X157484690Y-124022071D01*
X157528398Y-124044939D01*
X157574743Y-124069869D01*
X157624297Y-124097125D01*
X157677632Y-124126975D01*
X157735320Y-124159684D01*
X157797932Y-124195519D01*
X157862694Y-124232815D01*
X157912887Y-124261743D01*
X157957657Y-124287450D01*
X157997661Y-124310298D01*
X158033555Y-124330648D01*
X158065994Y-124348863D01*
X158095635Y-124365303D01*
X158123134Y-124380330D01*
X158149147Y-124394307D01*
X158174330Y-124407594D01*
X158199338Y-124420554D01*
X158224828Y-124433549D01*
X158247222Y-124444820D01*
X158312539Y-124476741D01*
X158373326Y-124504702D01*
X158430631Y-124529064D01*
X158485499Y-124550188D01*
X158538978Y-124568436D01*
X158592115Y-124584169D01*
X158645957Y-124597748D01*
X158701551Y-124609537D01*
X158749025Y-124618094D01*
X158808301Y-124627475D01*
X158862886Y-124634849D01*
X158914804Y-124640377D01*
X158966074Y-124644223D01*
X159018721Y-124646550D01*
X159074766Y-124647522D01*
X159113292Y-124647509D01*
X159139880Y-124647309D01*
X159164924Y-124647051D01*
X159187330Y-124646751D01*
X159206003Y-124646426D01*
X159219851Y-124646092D01*
X159227777Y-124645767D01*
X159227944Y-124645755D01*
X159318991Y-124636740D01*
X159408800Y-124623096D01*
X159496515Y-124605042D01*
X159581282Y-124582798D01*
X159662244Y-124556583D01*
X159738545Y-124526619D01*
X159796209Y-124499817D01*
X159882043Y-124452919D01*
X159965670Y-124399377D01*
X160047012Y-124339273D01*
X160125994Y-124272690D01*
X160202539Y-124199708D01*
X160276571Y-124120411D01*
X160348015Y-124034879D01*
X160416793Y-123943196D01*
X160482829Y-123845442D01*
X160546048Y-123741701D01*
X160606373Y-123632053D01*
X160610700Y-123623746D01*
X160647707Y-123548734D01*
X160682221Y-123470989D01*
X160714600Y-123389580D01*
X160745202Y-123303574D01*
X160774388Y-123212039D01*
X160790890Y-123155758D01*
X160798457Y-123129169D01*
X161044194Y-123030044D01*
X161083671Y-123014069D01*
X161121187Y-122998791D01*
X161156234Y-122984422D01*
X161188306Y-122971173D01*
X161216898Y-122959257D01*
X161241502Y-122948887D01*
X161261612Y-122940274D01*
X161276722Y-122933630D01*
X161286326Y-122929168D01*
X161289917Y-122927101D01*
X161289931Y-122927055D01*
X161287356Y-122924178D01*
X161279885Y-122916965D01*
X161267902Y-122905762D01*
X161251787Y-122890917D01*
X161231922Y-122872776D01*
X161208690Y-122851686D01*
X161182471Y-122827994D01*
X161153649Y-122802048D01*
X161122605Y-122774193D01*
X161089720Y-122744778D01*
X161064153Y-122721966D01*
X160838375Y-122520741D01*
X160823997Y-122481022D01*
X160795662Y-122410948D01*
X160762414Y-122344045D01*
X160723848Y-122279707D01*
X160679555Y-122217324D01*
X160629130Y-122156287D01*
X160572165Y-122095990D01*
X160555776Y-122079917D01*
X160488462Y-122019739D01*
X160415870Y-121964059D01*
X160338266Y-121913010D01*
X160255914Y-121866722D01*
X160169079Y-121825330D01*
X160078026Y-121788964D01*
X159983021Y-121757758D01*
X159884329Y-121731842D01*
X159838250Y-121721834D01*
X159793853Y-121713197D01*
X159754131Y-121706427D01*
X159717021Y-121701295D01*
X159680460Y-121697572D01*
X159642386Y-121695029D01*
X159600735Y-121693439D01*
X159577194Y-121692916D01*
X159530426Y-121692493D01*
X159488969Y-121693103D01*
X159488969Y-121693103D01*
G37*
X159488969Y-121693103D02*
X159451134Y-121694878D01*
X159415237Y-121697950D01*
X159379588Y-121702451D01*
X159342501Y-121708512D01*
X159317463Y-121713226D01*
X159280495Y-121720873D01*
X159245230Y-121729056D01*
X159210622Y-121738108D01*
X159175624Y-121748364D01*
X159139191Y-121760156D01*
X159100278Y-121773818D01*
X159057839Y-121789684D01*
X159010827Y-121808088D01*
X158975263Y-121822406D01*
X158928042Y-121841805D01*
X158880102Y-121861943D01*
X158831041Y-121883011D01*
X158780453Y-121905199D01*
X158727934Y-121928695D01*
X158673079Y-121953689D01*
X158615486Y-121980372D01*
X158554749Y-122008932D01*
X158490464Y-122039559D01*
X158422227Y-122072442D01*
X158349635Y-122107772D01*
X158272281Y-122145737D01*
X158189764Y-122186528D01*
X158101677Y-122230333D01*
X158043915Y-122259177D01*
X157962201Y-122299964D01*
X157886268Y-122337698D01*
X157815642Y-122372596D01*
X157749851Y-122404875D01*
X157688423Y-122434752D01*
X157630885Y-122462444D01*
X157576765Y-122488167D01*
X157525591Y-122512138D01*
X157476889Y-122534575D01*
X157430189Y-122555695D01*
X157385018Y-122575714D01*
X157340903Y-122594848D01*
X157297371Y-122613316D01*
X157253951Y-122631334D01*
X157210171Y-122649119D01*
X157165557Y-122666888D01*
X157119637Y-122684857D01*
X157102458Y-122691509D01*
X157078476Y-122700793D01*
X157056212Y-122709455D01*
X157036652Y-122717109D01*
X157020781Y-122723366D01*
X157009586Y-122727840D01*
X157004216Y-122730070D01*
X156994168Y-122734573D01*
X157009302Y-122753849D01*
X157021111Y-122767902D01*
X157037080Y-122785482D01*
X157056079Y-122805449D01*
X157076977Y-122826663D01*
X157098643Y-122847986D01*
X157119945Y-122868277D01*
X157139754Y-122886397D01*
X157148319Y-122893920D01*
X157223898Y-122955039D01*
X157305648Y-123013238D01*
X157393253Y-123068375D01*
X157486399Y-123120306D01*
X157584769Y-123168886D01*
X157688048Y-123213973D01*
X157795921Y-123255422D01*
X157908072Y-123293091D01*
X158024186Y-123326835D01*
X158143946Y-123356510D01*
X158183722Y-123365281D01*
X158242747Y-123377567D01*
X158296586Y-123388013D01*
X158346795Y-123396877D01*
X158394926Y-123404413D01*
X158442531Y-123410877D01*
X158491165Y-123416526D01*
X158501222Y-123417588D01*
X158521268Y-123419185D01*
X158546488Y-123420438D01*
X158575561Y-123421348D01*
X158607167Y-123421913D01*
X158639986Y-123422134D01*
X158672697Y-123422011D01*
X158703980Y-123421543D01*
X158732515Y-123420730D01*
X158756981Y-123419572D01*
X158776059Y-123418069D01*
X158779917Y-123417629D01*
X158850413Y-123406359D01*
X158915332Y-123390777D01*
X158974686Y-123370875D01*
X159028489Y-123346642D01*
X159076754Y-123318071D01*
X159119494Y-123285152D01*
X159156725Y-123247875D01*
X159188458Y-123206233D01*
X159214708Y-123160216D01*
X159234186Y-123113556D01*
X159243436Y-123085336D01*
X159250050Y-123059790D01*
X159254389Y-123034670D01*
X159256811Y-123007726D01*
X159257677Y-122976710D01*
X159257689Y-122966690D01*
X159257494Y-122909783D01*
X159280459Y-122907430D01*
X159303423Y-122905078D01*
X159353181Y-122939010D01*
X159352739Y-122988359D01*
X159348754Y-123046590D01*
X159337973Y-123103341D01*
X159320573Y-123158195D01*
X159296733Y-123210732D01*
X159266631Y-123260536D01*
X159230446Y-123307188D01*
X159205226Y-123334155D01*
X159164590Y-123371000D01*
X159120860Y-123403371D01*
X159073528Y-123431491D01*
X159022089Y-123455584D01*
X158966034Y-123475873D01*
X158904857Y-123492584D01*
X158838052Y-123505938D01*
X158804611Y-123511113D01*
X158783545Y-123513389D01*
X158756697Y-123515185D01*
X158725325Y-123516500D01*
X158690685Y-123517334D01*
X158654034Y-123517688D01*
X158616631Y-123517562D01*
X158579731Y-123516956D01*
X158544593Y-123515870D01*
X158512474Y-123514303D01*
X158484630Y-123512257D01*
X158473000Y-123511088D01*
X158358753Y-123495915D01*
X158243621Y-123476055D01*
X158128476Y-123451770D01*
X158014191Y-123423321D01*
X157901641Y-123390969D01*
X157791697Y-123354975D01*
X157685234Y-123315600D01*
X157583124Y-123273106D01*
X157486240Y-123227754D01*
X157431392Y-123199498D01*
X157348282Y-123152751D01*
X157269342Y-123103631D01*
X157195019Y-123052487D01*
X157125759Y-122999668D01*
X157062007Y-122945522D01*
X157004209Y-122890397D01*
X156952812Y-122834643D01*
X156931120Y-122808480D01*
X156916411Y-122790572D01*
X156905353Y-122778259D01*
X156897679Y-122771267D01*
X156893122Y-122769322D01*
X156892894Y-122769373D01*
X156878318Y-122773012D01*
X156857871Y-122777139D01*
X156832704Y-122781588D01*
X156803971Y-122786193D01*
X156772826Y-122790787D01*
X156740421Y-122795204D01*
X156707909Y-122799276D01*
X156676444Y-122802837D01*
X156647179Y-122805720D01*
X156633264Y-122806893D01*
X156603004Y-122808630D01*
X156569491Y-122809311D01*
X156532279Y-122808909D01*
X156490925Y-122807398D01*
X156444983Y-122804750D01*
X156394009Y-122800938D01*
X156337559Y-122795937D01*
X156275188Y-122789719D01*
X156206452Y-122782256D01*
X156185236Y-122779853D01*
X156087304Y-122768039D01*
X155982890Y-122754253D01*
X155872274Y-122738544D01*
X155755733Y-122720962D01*
X155633546Y-122701559D01*
X155505989Y-122680386D01*
X155373343Y-122657492D01*
X155235883Y-122632928D01*
X155093890Y-122606746D01*
X154947640Y-122578995D01*
X154797412Y-122549727D01*
X154643483Y-122518991D01*
X154486133Y-122486840D01*
X154325639Y-122453322D01*
X154162279Y-122418489D01*
X153996331Y-122382392D01*
X153968028Y-122376166D01*
X153936495Y-122369268D01*
X153906427Y-122362787D01*
X153878674Y-122356899D01*
X153854087Y-122351780D01*
X153833516Y-122347607D01*
X153817814Y-122344556D01*
X153807830Y-122342804D01*
X153805750Y-122342520D01*
X153778371Y-122342603D01*
X153749403Y-122348198D01*
X153720663Y-122358640D01*
X153693968Y-122373263D01*
X153671137Y-122391400D01*
X153670423Y-122392097D01*
X153659666Y-122404458D01*
X153646441Y-122422584D01*
X153631127Y-122445782D01*
X153614102Y-122473362D01*
X153595747Y-122504633D01*
X153576438Y-122538902D01*
X153556556Y-122575479D01*
X153536479Y-122613671D01*
X153516585Y-122652789D01*
X153497253Y-122692139D01*
X153478863Y-122731031D01*
X153461792Y-122768774D01*
X153453062Y-122788888D01*
X153425582Y-122857828D01*
X153403705Y-122922753D01*
X153387436Y-122983631D01*
X153376780Y-123040428D01*
X153371742Y-123093112D01*
X153372326Y-123141650D01*
X153378538Y-123186008D01*
X153389697Y-123224355D01*
X153399279Y-123244617D01*
X153412842Y-123266530D01*
X153428641Y-123287628D01*
X153444928Y-123305441D01*
X153450911Y-123310860D01*
X153466300Y-123322771D01*
X153482919Y-123333287D01*
X153501311Y-123342518D01*
X153522022Y-123350574D01*
X153545594Y-123357565D01*
X153572573Y-123363602D01*
X153603502Y-123368794D01*
X153638926Y-123373252D01*
X153679388Y-123377086D01*
X153725433Y-123380405D01*
X153777604Y-123383321D01*
X153818097Y-123385182D01*
X153837868Y-123385961D01*
X153863696Y-123386876D01*
X153894584Y-123387897D01*
X153929536Y-123388994D01*
X153967554Y-123390137D01*
X154007643Y-123391294D01*
X154048805Y-123392437D01*
X154090044Y-123393534D01*
X154110903Y-123394070D01*
X154216868Y-123396865D01*
X154316377Y-123399728D01*
X154410029Y-123402688D01*
X154498424Y-123405774D01*
X154582160Y-123409016D01*
X154661838Y-123412444D01*
X154738056Y-123416086D01*
X154811413Y-123419972D01*
X154882509Y-123424132D01*
X154951944Y-123428595D01*
X155020317Y-123433390D01*
X155088226Y-123438548D01*
X155156271Y-123444096D01*
X155192167Y-123447168D01*
X155344575Y-123461484D01*
X155491084Y-123477501D01*
X155632686Y-123495426D01*
X155770371Y-123515462D01*
X155905131Y-123537813D01*
X156037958Y-123562686D01*
X156169844Y-123590283D01*
X156301779Y-123620811D01*
X156434756Y-123654473D01*
X156569766Y-123691474D01*
X156707801Y-123732018D01*
X156849851Y-123776311D01*
X156957819Y-123811516D01*
X157014471Y-123830415D01*
X157066899Y-123848181D01*
X157115676Y-123865079D01*
X157161373Y-123881377D01*
X157204563Y-123897340D01*
X157245816Y-123913235D01*
X157285705Y-123929327D01*
X157324801Y-123945884D01*
X157363675Y-123963170D01*
X157402901Y-123981452D01*
X157443048Y-124000997D01*
X157484690Y-124022071D01*
X157528398Y-124044939D01*
X157574743Y-124069869D01*
X157624297Y-124097125D01*
X157677632Y-124126975D01*
X157735320Y-124159684D01*
X157797932Y-124195519D01*
X157862694Y-124232815D01*
X157912887Y-124261743D01*
X157957657Y-124287450D01*
X157997661Y-124310298D01*
X158033555Y-124330648D01*
X158065994Y-124348863D01*
X158095635Y-124365303D01*
X158123134Y-124380330D01*
X158149147Y-124394307D01*
X158174330Y-124407594D01*
X158199338Y-124420554D01*
X158224828Y-124433549D01*
X158247222Y-124444820D01*
X158312539Y-124476741D01*
X158373326Y-124504702D01*
X158430631Y-124529064D01*
X158485499Y-124550188D01*
X158538978Y-124568436D01*
X158592115Y-124584169D01*
X158645957Y-124597748D01*
X158701551Y-124609537D01*
X158749025Y-124618094D01*
X158808301Y-124627475D01*
X158862886Y-124634849D01*
X158914804Y-124640377D01*
X158966074Y-124644223D01*
X159018721Y-124646550D01*
X159074766Y-124647522D01*
X159113292Y-124647509D01*
X159139880Y-124647309D01*
X159164924Y-124647051D01*
X159187330Y-124646751D01*
X159206003Y-124646426D01*
X159219851Y-124646092D01*
X159227777Y-124645767D01*
X159227944Y-124645755D01*
X159318991Y-124636740D01*
X159408800Y-124623096D01*
X159496515Y-124605042D01*
X159581282Y-124582798D01*
X159662244Y-124556583D01*
X159738545Y-124526619D01*
X159796209Y-124499817D01*
X159882043Y-124452919D01*
X159965670Y-124399377D01*
X160047012Y-124339273D01*
X160125994Y-124272690D01*
X160202539Y-124199708D01*
X160276571Y-124120411D01*
X160348015Y-124034879D01*
X160416793Y-123943196D01*
X160482829Y-123845442D01*
X160546048Y-123741701D01*
X160606373Y-123632053D01*
X160610700Y-123623746D01*
X160647707Y-123548734D01*
X160682221Y-123470989D01*
X160714600Y-123389580D01*
X160745202Y-123303574D01*
X160774388Y-123212039D01*
X160790890Y-123155758D01*
X160798457Y-123129169D01*
X161044194Y-123030044D01*
X161083671Y-123014069D01*
X161121187Y-122998791D01*
X161156234Y-122984422D01*
X161188306Y-122971173D01*
X161216898Y-122959257D01*
X161241502Y-122948887D01*
X161261612Y-122940274D01*
X161276722Y-122933630D01*
X161286326Y-122929168D01*
X161289917Y-122927101D01*
X161289931Y-122927055D01*
X161287356Y-122924178D01*
X161279885Y-122916965D01*
X161267902Y-122905762D01*
X161251787Y-122890917D01*
X161231922Y-122872776D01*
X161208690Y-122851686D01*
X161182471Y-122827994D01*
X161153649Y-122802048D01*
X161122605Y-122774193D01*
X161089720Y-122744778D01*
X161064153Y-122721966D01*
X160838375Y-122520741D01*
X160823997Y-122481022D01*
X160795662Y-122410948D01*
X160762414Y-122344045D01*
X160723848Y-122279707D01*
X160679555Y-122217324D01*
X160629130Y-122156287D01*
X160572165Y-122095990D01*
X160555776Y-122079917D01*
X160488462Y-122019739D01*
X160415870Y-121964059D01*
X160338266Y-121913010D01*
X160255914Y-121866722D01*
X160169079Y-121825330D01*
X160078026Y-121788964D01*
X159983021Y-121757758D01*
X159884329Y-121731842D01*
X159838250Y-121721834D01*
X159793853Y-121713197D01*
X159754131Y-121706427D01*
X159717021Y-121701295D01*
X159680460Y-121697572D01*
X159642386Y-121695029D01*
X159600735Y-121693439D01*
X159577194Y-121692916D01*
X159530426Y-121692493D01*
X159488969Y-121693103D01*
D12*
X161005000Y-115800000D03*
X158295000Y-115800000D03*
X161005000Y-100200000D03*
X158295000Y-100200000D03*
X161005000Y-115400000D03*
X161005000Y-115000000D03*
X161005000Y-114600000D03*
X161005000Y-114200000D03*
X161005000Y-113800000D03*
X161005000Y-113400000D03*
X161005000Y-113000000D03*
X161005000Y-112600000D03*
X161005000Y-112200000D03*
X161005000Y-111800000D03*
X161005000Y-111400000D03*
X161005000Y-111000000D03*
X161005000Y-110600000D03*
X161005000Y-110200000D03*
X161005000Y-109800000D03*
X161005000Y-109400000D03*
X161005000Y-109000000D03*
X161005000Y-108600000D03*
X161005000Y-108200000D03*
X161005000Y-107800000D03*
X161005000Y-107400000D03*
X161005000Y-107000000D03*
X161005000Y-106600000D03*
X161005000Y-106200000D03*
X161005000Y-105800000D03*
X161005000Y-105400000D03*
X161005000Y-105000000D03*
X161005000Y-104600000D03*
X161005000Y-104200000D03*
X161005000Y-103800000D03*
X161005000Y-103400000D03*
X161005000Y-103000000D03*
X161005000Y-102600000D03*
X161005000Y-102200000D03*
X161005000Y-101800000D03*
X161005000Y-101400000D03*
X161005000Y-101000000D03*
X161005000Y-100600000D03*
D13*
X161005000Y-99725000D03*
X158295000Y-99725000D03*
X161005000Y-116275000D03*
X158295000Y-116275000D03*
D12*
X158295000Y-100600000D03*
X158295000Y-101000000D03*
X158295000Y-101400000D03*
X158295000Y-101800000D03*
X158295000Y-102200000D03*
X158295000Y-102600000D03*
X158295000Y-103000000D03*
X158295000Y-103400000D03*
X158295000Y-103800000D03*
X158295000Y-104200000D03*
X158295000Y-104600000D03*
X158295000Y-105000000D03*
X158295000Y-105400000D03*
X158295000Y-105800000D03*
X158295000Y-106200000D03*
X158295000Y-106600000D03*
X158295000Y-107000000D03*
X158295000Y-107400000D03*
X158295000Y-107800000D03*
X158295000Y-108200000D03*
X158295000Y-108600000D03*
X158295000Y-109000000D03*
X158295000Y-109400000D03*
X158295000Y-109800000D03*
X158295000Y-110200000D03*
X158295000Y-110600000D03*
X158295000Y-111000000D03*
X158295000Y-111400000D03*
X158295000Y-111800000D03*
X158295000Y-112200000D03*
X158295000Y-112600000D03*
X158295000Y-113000000D03*
X158295000Y-113400000D03*
X158295000Y-113800000D03*
X158295000Y-114200000D03*
X158295000Y-114600000D03*
X158295000Y-115000000D03*
X158295000Y-115400000D03*
D14*
X156250000Y-95900000D03*
X158150000Y-95900000D03*
D15*
X158712500Y-92862500D03*
X158712500Y-93362500D03*
X158712500Y-93862500D03*
X158712500Y-94362500D03*
X155812500Y-94362500D03*
X155812500Y-93862500D03*
X155812500Y-93362500D03*
X155812500Y-92862500D03*
D16*
X156825000Y-93975000D03*
X156825000Y-93250000D03*
X157700000Y-93975000D03*
X157700000Y-93250000D03*
D17*
X156550000Y-91200000D03*
X154350000Y-91200000D03*
D18*
X158550000Y-91250000D03*
D19*
X138570000Y-108310000D03*
D20*
X141110000Y-108310000D03*
X143650000Y-108310000D03*
X146190000Y-108310000D03*
X148730000Y-108310000D03*
X151270000Y-108310000D03*
D19*
X138570000Y-91350000D03*
D20*
X141110000Y-91350000D03*
X143650000Y-91350000D03*
X146190000Y-91350000D03*
X148730000Y-91350000D03*
X151270000Y-91350000D03*
M02*
